<svg xmlns="http://www.w3.org/2000/svg" viewBox="0 0 800 200" preserveAspectRatio="none"><path d="M0 78.689l5.333-13.115c5.334-13.115 16-39.344 26.667-28.416 10.667 10.93 21.333 59.017 32 79.782 10.667 20.765 21.333 14.208 32 16.94 10.667 2.732 21.333 14.754 32 25.136 10.667 10.383 21.333 19.126 32 11.476 10.667-7.65 21.333-31.694 32-48.634 10.667-16.94 21.333-26.776 32-28.962 10.667-2.186 21.333 3.279 32 17.487 10.667 14.207 21.333 37.158 32 43.169 10.667 6.01 21.333-4.918 32-6.557 10.667-1.64 21.333 6.01 32 6.01 10.667 0 21.333-7.65 32-2.185 10.667 5.464 21.333 24.043 32 27.322 10.667 3.279 21.333-8.743 32-10.382 10.667-1.64 21.333 7.103 32 9.29 10.667 2.185 21.333-2.187 32-3.826 10.667-1.64 21.333-.546 32 3.825 10.667 4.372 21.333 12.022 32 13.661 10.667 1.64 21.333-2.732 32-12.021 10.667-9.29 21.333-23.498 32-28.962 10.667-5.465 21.333-2.186 32-13.115 10.667-10.929 21.333-36.066 32-28.962 10.667 7.104 21.333 46.448 32 63.935 10.667 17.486 21.333 13.114 32-12.022 10.667-25.137 21.333-71.038 26.667-93.99L800 42.624" id="github"/><path d="M0 200h5.333A4076174662735796 4076174662735796 0 0 0 608 200c10.667 0 21.333 0 32-1.093 10.667-1.093 21.333-3.279 32-5.464 10.667-2.186 21.333-4.372 32-7.104 10.667-2.732 21.333-6.011 32-6.011 10.667 0 21.333 3.279 32 5.464 10.667 2.186 21.333 3.279 26.667 3.825l5.333.547" id="instagram"/><path d="M0 140.984l5.333-8.197c5.334-8.197 16-24.59 26.667-27.869 10.667-3.279 21.333 6.557 32 4.918 10.667-1.64 21.333-14.754 32-14.208 10.667.547 21.333 14.755 32 29.509 10.667 14.754 21.333 30.054 32 36.612 10.667 6.557 21.333 4.371 32-8.197 10.667-12.568 21.333-35.52 32-41.53 10.667-6.011 21.333 4.918 32 14.208 10.667 9.29 21.333 16.94 32 19.125 10.667 2.186 21.333-1.093 32-25.136 10.667-24.044 21.333-68.853 32-87.979 10.667-19.125 21.333-12.568 32 7.104 10.667 19.672 21.333 52.46 32 65.574 10.667 13.115 21.333 6.557 32 9.836 10.667 3.279 21.333 16.394 32 28.415 10.667 12.022 21.333 22.951 32 26.776 10.667 3.825 21.333.547 32-2.185 10.667-2.733 21.333-4.918 32-7.65 10.667-2.733 21.333-6.012 32-7.651 10.667-1.64 21.333-1.64 32 1.093 10.667 2.732 21.333 8.197 32 8.197 10.667 0 21.333-5.465 32-10.383 10.667-4.918 21.333-9.29 32-8.743 10.667.546 21.333 6.01 32 3.825 10.667-2.186 21.333-12.022 26.667-16.94L800 124.59" id="twitter"/><desc>{&quot;github&quot;:474,&quot;instagram&quot;:20,&quot;twitter&quot;:562}</desc></svg>